HIERARCHY
ROOT Hips
{
	OFFSET 0.00000 0.00000 0.00000
	CHANNELS 6 Xposition Yposition Zposition Zrotation Yrotation Xrotation 
	JOINT LHipJoint
	{
		OFFSET 0 0 0
		CHANNELS 3 Zrotation Yrotation Xrotation
		JOINT LeftUpLeg
		{
			OFFSET 1.61328 -1.70571 0.84375
			CHANNELS 3 Zrotation Yrotation Xrotation
			JOINT LeftLeg
			{
				OFFSET 2.32400 -6.38513 0.00000
				CHANNELS 3 Zrotation Yrotation Xrotation
				JOINT LeftFoot
				{
					OFFSET 2.58843 -7.11166 0.00000
					CHANNELS 3 Zrotation Yrotation Xrotation
					JOINT LeftToeBase
					{
						OFFSET 0.17200 -0.47257 2.47970
						CHANNELS 3 Zrotation Yrotation Xrotation
						End Site
						{
							OFFSET 0.00000 -0.00000 1.26912
						}
					}
				}
			}
		}
	}
	JOINT RHipJoint
	{
		OFFSET 0 0 0
		CHANNELS 3 Zrotation Yrotation Xrotation
		JOINT RightUpLeg
		{
			OFFSET -1.49930 -1.70570 0.84375
			CHANNELS 3 Zrotation Yrotation Xrotation
			JOINT RightLeg
			{
				OFFSET -2.30458 -6.33178 0.00000
				CHANNELS 3 Zrotation Yrotation Xrotation
				JOINT RightFoot
				{
					OFFSET -2.62261 -7.20556 0.00000
					CHANNELS 3 Zrotation Yrotation Xrotation
					JOINT RightToeBase
					{
						OFFSET -0.18709 -0.51403 2.51340
						CHANNELS 3 Zrotation Yrotation Xrotation
						End Site
						{
							OFFSET -0.00000 -0.00000 1.28858
						}
					}
				}
			}
		}
	}
	JOINT LowerBack
	{
		OFFSET 0 0 0
		CHANNELS 3 Zrotation Yrotation Xrotation
		JOINT Spine
		{
			OFFSET -0.03798 2.19274 -0.19881
			CHANNELS 3 Zrotation Yrotation Xrotation
			JOINT Spine1
			{
				OFFSET -0.00024 2.19460 0.05248
				CHANNELS 3 Zrotation Yrotation Xrotation
				JOINT Neck
				{
					OFFSET 0 0 0
					CHANNELS 3 Zrotation Yrotation Xrotation
					JOINT Neck1
					{
						OFFSET -0.00746 1.82323 0.17286
						CHANNELS 3 Zrotation Yrotation Xrotation
						JOINT Head
						{
							OFFSET 0.11826 1.82121 -0.27841
							CHANNELS 3 Zrotation Yrotation Xrotation
							End Site
							{
								OFFSET 0.03496 1.85543 -0.11495
							}
						}
					}
				}
				JOINT LeftShoulder
				{
					OFFSET 0 0 0
					CHANNELS 3 Zrotation Yrotation Xrotation
					JOINT LeftArm
					{
						OFFSET 3.71926 0.78840 0.25473
						CHANNELS 3 Zrotation Yrotation Xrotation
						JOINT LeftForeArm
						{
							OFFSET 5.37587 -0.00000 0.00000
							CHANNELS 3 Zrotation Yrotation Xrotation
							JOINT LeftHand
							{
								OFFSET 3.35977 -0.00000 0.00000
								CHANNELS 3 Zrotation Yrotation Xrotation
								JOINT LeftFingerBase
								{
									OFFSET 0 0 0
									CHANNELS 3 Zrotation Yrotation Xrotation
									JOINT LeftHandIndex1
									{
										OFFSET 0.56186 -0.00000 0.00000
										CHANNELS 3 Zrotation Yrotation Xrotation
										End Site
										{
											OFFSET 0.45299 -0.00000 0.00000
										}
									}
								}
								JOINT LThumb
								{
									OFFSET 0 0 0
									CHANNELS 3 Zrotation Yrotation Xrotation
									End Site
									{
										OFFSET 0.45990 -0.00000 0.45990
									}
								}
							}
						}
					}
				}
				JOINT RightShoulder
				{
					OFFSET 0 0 0
					CHANNELS 3 Zrotation Yrotation Xrotation
					JOINT RightArm
					{
						OFFSET -3.65136 0.56074 0.01624
						CHANNELS 3 Zrotation Yrotation Xrotation
						JOINT RightForeArm
						{
							OFFSET -5.22819 -0.00000 0.00000
							CHANNELS 3 Zrotation Yrotation Xrotation
							JOINT RightHand
							{
								OFFSET -3.40764 -0.00000 0.00000
								CHANNELS 3 Zrotation Yrotation Xrotation
								JOINT RightFingerBase
								{
									OFFSET 0 0 0
									CHANNELS 3 Zrotation Yrotation Xrotation
									JOINT RightHandIndex1
									{
										OFFSET -0.58325 -0.00000 0.00000
										CHANNELS 3 Zrotation Yrotation Xrotation
										End Site
										{
											OFFSET -0.47024 -0.00000 0.00000
										}
									}
								}
								JOINT RThumb
								{
									OFFSET 0 0 0
									CHANNELS 3 Zrotation Yrotation Xrotation
									End Site
									{
										OFFSET -0.47742 -0.00000 0.47742
									}
								}
							}
						}
					}
				}
			}
		}
	}
}
MOTION
Frames: 6
Frame Time: .0083333
48.9899 16.4700 -6.9650 -548.8320 -102.0290 1629.2700 0.0000 0.0000 0.0000 -21.8350 4.8306 -3.4854 1.7780 8.3875 23.8974 0.9648 -6.0679 -17.5237 0.1158 -2.1940 -6.0422 0.0000 0.0000 0.0000 23.4391 3.4553 -5.6205 -3.7724 -11.8513 35.2078 -2.5820 2.1229 -29.8706 -0.6838 -5.2869 14.7287 0.6497 0.4132 -2.8681 0.1545 0.4826 -4.0172 -0.2011 0.1985 -2.5116 -12.1294 -11.3691 -6.9622 14.7784 -15.0655 2.0041 5.4059 -7.2159 3.8024 0.0000 0.0000 0.0000 -72.5117 4.2756 59.1472 153.1370 -38.0482 -110.5854 -0.0000 0.0000 -35.6287 1.6576 11.0311 0.3172 -7.1250 0.0000 -0.0000 -22.0750 39.9849 2.8929 0.0000 0.0000 0.0000 73.9212 -17.8465 71.4807 -112.5393 57.9906 -79.3879 0.0000 -0.0000 -12.4788 -12.2708 15.2254 -3.2691 7.1250 -0.0000 -0.0000 10.3379 -14.5900 7.5261
48.9853 16.4693 -6.9487 -548.8940 -101.7260 1629.3200 0.0000 0.0000 0.0000 -21.9434 5.0130 -3.4102 1.7628 8.3535 23.7931 0.9678 -6.0035 -17.5524 0.1115 -2.1529 -5.9284 0.0000 0.0000 0.0000 23.3118 3.6215 -5.7244 -3.8393 -11.9434 35.5321 -2.5608 2.2161 -29.7211 -0.6383 -5.1113 14.2264 0.6425 0.3353 -2.8754 0.2077 0.3792 -4.0168 -0.1431 0.1476 -2.5083 -12.0912 -11.3381 -7.0254 14.6930 -15.0168 2.0474 5.3756 -7.1904 3.8088 0.0000 0.0000 0.0000 -72.6362 4.0337 59.1009 153.2401 -37.9493 -110.6489 -0.0000 0.0000 -35.6672 1.6073 11.0621 0.3085 -7.1250 0.0000 -0.0000 -22.1264 40.0093 2.8863 0.0000 0.0000 0.0000 73.9747 -17.9196 71.3751 -112.5731 57.9843 -79.4166 0.0000 -0.0000 -12.3600 -12.1836 15.2054 -3.2411 7.1250 -0.0000 -0.0000 10.3965 -14.6167 7.5642
48.9811 16.4683 -6.9323 -548.9740 -101.4110 1629.3700 0.0000 0.0000 0.0000 -22.0533 5.2061 -3.3371 1.7492 8.3228 23.6989 0.9721 -5.9296 -17.5928 0.1069 -2.1080 -5.8042 0.0000 0.0000 0.0000 23.1818 3.7959 -5.8434 -3.9154 -12.0470 35.8984 -2.5381 2.3346 -29.5563 -0.5972 -4.9470 13.7576 0.6383 0.2609 -2.8668 0.2593 0.2807 -4.0129 -0.0884 0.0992 -2.5101 -12.0264 -11.3155 -7.0786 14.5747 -14.9795 2.0854 5.3309 -7.1716 3.8087 -0.0000 -0.0000 0.0000 -72.7563 3.8044 59.0471 153.3404 -37.8526 -110.7105 -0.0000 0.0000 -35.7241 1.5513 11.0759 0.2981 -7.1250 0.0000 -0.0000 -22.1771 40.0172 2.8891 -0.0000 -0.0000 0.0000 74.0301 -17.9887 71.2628 -112.6158 57.9763 -79.4528 0.0000 -0.0000 -12.3427 -12.0223 15.1848 -3.1928 7.1250 -0.0000 -0.0000 10.5051 -14.6496 7.6385
48.9777 16.4667 -6.9161 -549.0450 -101.0840 1629.4100 0.0000 0.0000 0.0000 -22.1690 5.4148 -3.2689 1.7369 8.2952 23.6143 0.9772 -5.8447 -17.6412 0.1034 -2.0731 -5.7078 0.0000 0.0000 0.0000 23.0440 3.9774 -5.9840 -4.0023 -12.1635 36.3129 -2.5136 2.4657 -29.3775 -0.5575 -4.7828 13.2900 0.6292 0.1893 -2.8388 0.3086 0.1863 -4.0079 -0.0333 0.0529 -2.5214 -11.9408 -11.3008 -7.1155 14.4281 -14.9534 2.1198 5.2743 -7.1597 3.8022 0.0000 0.0000 0.0000 -72.8784 3.5839 58.9870 153.4382 -37.7581 -110.7704 -0.0000 0.0000 -35.8004 1.4823 11.0871 0.2851 -7.1250 0.0000 -0.0000 -22.2378 40.0217 2.8954 0.0000 0.0000 0.0000 74.0851 -18.0570 71.1576 -112.6514 57.9697 -79.4829 0.0000 -0.0000 -12.3801 -11.8613 15.1466 -3.1411 7.1250 -0.0000 -0.0000 10.6137 -14.6999 7.7087
48.9752 16.4646 -6.9000 -549.0580 -100.7440 1629.3900 0.0000 0.0000 0.0000 -22.3005 5.6372 -3.2061 1.7257 8.2696 23.5361 0.9828 -5.7454 -17.6954 0.1015 -2.0543 -5.6557 0.0000 0.0000 0.0000 22.8889 4.1669 -6.1536 -4.1021 -12.2950 36.7838 -2.4875 2.6045 -29.1869 -0.5185 -4.6148 12.8132 0.6029 0.1203 -2.7914 0.3545 0.0958 -4.0007 0.0279 0.0090 -2.5411 -11.8581 -11.2920 -7.1440 14.2774 -14.9363 2.1600 5.2162 -7.1526 3.7972 0.0000 0.0000 0.0000 -72.9991 3.3717 58.9206 153.5396 -37.6597 -110.8325 -0.0000 0.0000 -35.8986 1.4128 11.0977 0.2720 -7.1250 0.0000 -0.0000 -22.2986 40.0254 2.9021 0.0000 0.0000 0.0000 74.1340 -18.1212 71.0603 -112.6887 57.9626 -79.5146 0.0000 -0.0000 -12.4698 -11.6874 15.0971 -3.0840 7.1250 -0.0000 -0.0000 10.7312 -14.7624 7.7826
48.9737 16.4619 -6.8842 -548.9850 -100.3940 1629.2700 0.0000 0.0000 0.0000 -22.4505 5.8719 -3.1469 1.7149 8.2450 23.4608 0.9890 -5.6402 -17.7560 0.1000 -2.0388 -5.6130 0.0000 0.0000 0.0000 22.7128 4.3664 -6.3584 -4.2170 -12.4437 37.3202 -2.4596 2.7484 -28.9845 -0.4792 -4.4391 12.3153 0.5541 0.0531 -2.7223 0.3960 0.0083 -3.9909 0.0974 -0.0327 -2.5701 -11.7982 -11.2886 -7.1724 14.1474 -14.9275 2.2120 5.1666 -7.1490 3.8004 -0.0000 -0.0000 0.0000 -73.1111 3.1688 58.8470 153.6472 -37.5550 -110.8981 -0.0000 0.0000 -36.0247 1.3501 11.0922 0.2598 -7.1250 0.0000 -0.0000 -22.3487 40.0149 2.9156 -0.0000 -0.0000 0.0000 74.1772 -18.1799 70.9759 -112.7224 57.9563 -79.5432 0.0000 -0.0000 -12.5503 -11.5532 15.0342 -3.0353 7.1250 -0.0000 -0.0000 10.8223 -14.8351 7.8339
